<svg width="18" height="24" viewBox="0 0 18 24" fill="none" xmlns="http://www.w3.org/2000/svg">
<path fill-rule="evenodd" clip-rule="evenodd" d="M7.3242 0.147224C7.72732 -0.00914457 8.15313 -0.0414919 8.56764 0.052764C8.98214 0.14702 9.37387 0.365268 9.71155 0.690089C10.0492 1.01491 10.3235 1.43731 10.5125 1.92356C10.7015 2.40982 10.7999 2.94647 10.8 3.49067V20.5093C10.7999 21.0535 10.7015 21.5902 10.5125 22.0764C10.3235 22.5627 10.0492 22.9851 9.71155 23.3099C9.37387 23.6347 8.98214 23.853 8.56764 23.9472C8.15313 24.0415 7.72732 24.0091 7.3242 23.8528L1.9242 21.758C1.36809 21.5423 0.880569 21.1006 0.533954 20.4983C0.187338 19.896 9.52103e-05 19.1653 0 18.4146V5.58542C9.52103e-05 4.83468 0.187338 4.10398 0.533954 3.50171C0.880569 2.89944 1.36809 2.45768 1.9242 2.24197L7.3242 0.147224ZM11.7 2.69001C11.7 2.38137 11.7948 2.08536 11.9636 1.86712C12.1324 1.64887 12.3613 1.52627 12.6 1.52627H15.3C16.0161 1.52627 16.7028 1.89409 17.2092 2.54883C17.7155 3.20356 18 4.09157 18 5.01751V6.18126C18 6.4899 17.9052 6.78591 17.7364 7.00415C17.5676 7.2224 17.3387 7.34501 17.1 7.34501C16.8613 7.34501 16.6324 7.2224 16.4636 7.00415C16.2948 6.78591 16.2 6.4899 16.2 6.18126V5.01751C16.2 4.70886 16.1052 4.41286 15.9364 4.19462C15.7676 3.97637 15.5387 3.85376 15.3 3.85376H12.6C12.3613 3.85376 12.1324 3.73115 11.9636 3.51291C11.7948 3.29466 11.7 2.99866 11.7 2.69001ZM17.1 16.655C17.3387 16.655 17.5676 16.7776 17.7364 16.9958C17.9052 17.2141 18 17.5101 18 17.8187V18.9825C18 19.9084 17.7155 20.7964 17.2092 21.4512C16.7028 22.1059 16.0161 22.4737 15.3 22.4737H12.6C12.3613 22.4737 12.1324 22.3511 11.9636 22.1329C11.7948 21.9146 11.7 21.6186 11.7 21.31C11.7 21.0013 11.7948 20.7053 11.9636 20.4871C12.1324 20.2688 12.3613 20.1462 12.6 20.1462H15.3C15.5387 20.1462 15.7676 20.0236 15.9364 19.8054C16.1052 19.5871 16.2 19.2911 16.2 18.9825V17.8187C16.2 17.5101 16.2948 17.2141 16.4636 16.9958C16.6324 16.7776 16.8613 16.655 17.1 16.655ZM6.3 10.8363C6.0613 10.8363 5.83239 10.9589 5.6636 11.1771C5.49482 11.3954 5.4 11.6914 5.4 12C5.4 12.3086 5.49482 12.6046 5.6636 12.8229C5.83239 13.0411 6.0613 13.1637 6.3 13.1637H6.3009C6.5396 13.1637 6.76851 13.0411 6.9373 12.8229C7.10608 12.6046 7.2009 12.3086 7.2009 12C7.2009 11.6914 7.10608 11.3954 6.9373 11.1771C6.76851 10.9589 6.5396 10.8363 6.3009 10.8363H6.3Z" fill="white"/>
</svg>
