<svg width="30" height="24" viewBox="0 0 30 24" fill="none" xmlns="http://www.w3.org/2000/svg">
<path d="M9.10714 12C10.67 12 12.1689 11.3679 13.274 10.2426C14.3791 9.11742 15 7.5913 15 6C15 4.4087 14.3791 2.88258 13.274 1.75736C12.1689 0.632141 10.67 0 9.10714 0C7.54426 0 6.04539 0.632141 4.94026 1.75736C3.83514 2.88258 3.21429 4.4087 3.21429 6C3.21429 7.5913 3.83514 9.11742 4.94026 10.2426C6.04539 11.3679 7.54426 12 9.10714 12ZM22.5 12C23.6366 12 24.7267 11.5403 25.5305 10.7219C26.3342 9.90358 26.7857 8.79367 26.7857 7.63636C26.7857 6.47906 26.3342 5.36915 25.5305 4.55081C24.7267 3.73247 23.6366 3.27273 22.5 3.27273C21.3634 3.27273 20.2733 3.73247 19.4695 4.55081C18.6658 5.36915 18.2143 6.47906 18.2143 7.63636C18.2143 8.79367 18.6658 9.90358 19.4695 10.7219C20.2733 11.5403 21.3634 12 22.5 12ZM3.21429 14.1818C2.3618 14.1818 1.54424 14.5266 0.941443 15.1404C0.338647 15.7541 0 16.5866 0 17.4545V17.6182C0 17.6182 0 24 9.10714 24C18.2143 24 18.2143 17.6182 18.2143 17.6182V17.4545C18.2143 16.5866 17.8756 15.7541 17.2728 15.1404C16.67 14.5266 15.8525 14.1818 15 14.1818H3.21429ZM22.5 21.8182C20.94 21.8182 19.7057 21.6022 18.7275 21.2585C19.1904 20.4949 19.4561 19.7585 19.6061 19.164C19.7154 18.7367 19.7847 18.2999 19.8129 17.8593C19.815 17.8156 19.8171 17.7764 19.8171 17.7425L19.8182 17.6967V17.4545C19.8201 16.2468 19.3831 15.0811 18.5914 14.1818H27.4211C27.7597 14.1817 28.095 14.2495 28.4079 14.3813C28.7208 14.5131 29.0051 14.7065 29.2446 14.9502C29.4841 15.1939 29.6741 15.4833 29.8037 15.8019C29.9333 16.1204 30 16.4618 30 16.8065C30 16.8065 30 21.8182 22.5 21.8182Z" fill="white"/>
</svg>
