<svg width="22" height="24" viewBox="0 0 22 24" fill="none" xmlns="http://www.w3.org/2000/svg">
<path d="M0 6V3.6H2.44444V2.4C2.44444 1.76348 2.70198 1.15303 3.16041 0.702944C3.61883 0.252856 4.24058 0 4.88889 0H12.2222V8.4L15.2778 6.6L18.3333 8.4V0H19.5556C20.8389 0 22 1.14 22 2.4V21.6C22 22.86 20.8389 24 19.5556 24H4.88889C3.60556 24 2.44444 22.86 2.44444 21.6V20.4H0V18H2.44444V13.2H0V10.8H2.44444V6H0ZM4.88889 10.8H2.44444V13.2H4.88889V10.8ZM4.88889 6V3.6H2.44444V6H4.88889ZM4.88889 20.4V18H2.44444V20.4H4.88889Z" fill="white"/>
</svg>
